<?xml version="1.0" standalone="no"?>
<!DOCTYPE svg PUBLIC "-//W3C//DTD SVG 20010904//EN"
 "http://www.w3.org/TR/2001/REC-SVG-20010904/DTD/svg10.dtd">
<svg version="1.0" xmlns="http://www.w3.org/2000/svg"
 width="416.000000pt" height="432.000000pt" viewBox="0 0 416.000000 432.000000"
 preserveAspectRatio="xMidYMid meet">

<g transform="translate(0.000000,432.000000) scale(0.100000,-0.100000)"
fill="#000000" stroke="none">
<path d="M2020 3899 c-84 -16 -203 -83 -264 -149 -64 -70 -70 -90 -26 -90 69
0 150 -55 170 -115 8 -24 7 -46 -4 -87 -15 -57 -9 -115 15 -160 17 -31 4 -31
-31 -1 -56 47 -75 127 -48 203 10 31 9 35 -20 61 -42 38 -77 45 -126 28 -56
-19 -86 -73 -86 -154 0 -105 68 -195 174 -231 l48 -16 -69 -38 c-328 -183
-563 -623 -563 -1054 0 -203 44 -393 127 -557 l46 -91 -23 -71 c-81 -252 -73
-481 25 -677 68 -136 218 -272 388 -355 136 -65 198 -79 357 -79 150 -1 223
13 366 69 158 62 259 151 323 285 32 67 36 84 36 155 0 67 -4 89 -28 137 -35
70 -100 130 -176 159 -43 17 -78 22 -152 23 -91 1 -99 -1 -172 -37 -94 -47
-183 -133 -226 -219 -46 -91 -39 -144 22 -167 40 -15 72 2 109 56 18 27 54 69
80 95 145 145 366 57 294 -117 -61 -146 -307 -247 -529 -216 -277 39 -480 218
-533 471 -26 123 -3 302 39 314 33 9 33 9 73 -29 l37 -35 368 0 c289 0 369 3
369 13 -1 28 -48 93 -88 122 -43 29 -47 30 -178 33 -128 4 -136 5 -150 27 -18
28 -19 25 71 170 116 186 185 349 185 437 0 59 -36 127 -80 150 -59 32 -134
20 -270 -42 -134 -61 -220 -93 -220 -80 0 15 84 79 164 124 42 24 135 63 208
86 117 38 144 43 223 43 159 -1 266 -60 280 -156 4 -26 11 -47 15 -47 20 0 61
45 71 79 9 31 8 49 -5 95 -31 107 -122 174 -267 197 -75 12 -230 7 -301 -10
-46 -11 -46 -9 -13 88 48 143 41 279 -20 390 -14 24 -23 46 -20 49 8 9 114
-36 160 -68 24 -16 47 -30 51 -30 4 0 4 23 1 52 l-6 52 40 -40 c33 -32 41 -36
50 -24 5 8 19 30 30 47 15 23 32 36 62 43 71 18 96 31 136 70 64 63 87 160 55
240 -15 37 -19 40 -45 35 -15 -4 -36 -2 -46 3 -22 11 -43 5 -43 -13 0 -8 18
-20 40 -26 48 -15 63 -30 58 -61 -2 -17 -14 -25 -50 -36 -56 -15 -63 -32 -14
-32 19 0 37 -4 40 -9 8 -13 -40 -69 -75 -86 -119 -62 -248 70 -178 184 11 18
19 34 17 36 -2 1 -25 8 -52 15 -89 24 -136 83 -136 170 0 58 15 93 57 131 43
41 66 49 134 49 51 0 72 -6 116 -30 l54 -31 37 22 c20 12 39 24 41 25 8 7 -43
75 -89 118 -107 101 -281 146 -440 115z m-250 -366 c-1 -5 -7 -19 -15 -33 -17
-30 -19 -103 -4 -133 7 -12 25 -39 41 -59 33 -43 25 -47 -32 -18 -50 26 -90
91 -90 149 0 34 6 49 29 72 27 26 72 40 71 22z"/>
<path d="M2306 3529 c-31 -25 -34 -61 -6 -89 20 -20 65 -26 86 -12 42 27 35
95 -11 112 -35 13 -38 13 -69 -11z"/>
<path d="M2532 3531 c-20 -12 -25 -64 -8 -86 12 -16 18 -18 33 -9 21 13 27 36
19 69 -6 25 -26 37 -44 26z"/>
<path d="M2394 2944 c-3 -11 -13 -36 -22 -57 -14 -35 -14 -42 1 -91 20 -63 21
-92 5 -137 l-13 -34 -5 34 c-5 34 -5 34 -33 -35 -15 -38 -30 -75 -34 -81 -3
-9 5 -13 29 -13 65 0 153 -22 211 -52 139 -74 215 -236 172 -370 -9 -30 -15
-66 -13 -79 4 -30 33 -36 59 -13 18 17 19 16 19 -13 0 -34 -24 -98 -40 -108
-17 -11 -1 -25 29 -25 67 0 129 74 151 181 15 69 9 209 -11 254 -41 94 -114
160 -250 224 l-64 30 -28 93 c-32 107 -106 265 -136 292 -20 18 -21 18 -27 0z"/>
<path d="M2313 2114 c-8 -4 -9 -15 -2 -37 23 -80 1 -183 -72 -336 -27 -58 -74
-144 -104 -191 -30 -48 -55 -89 -55 -92 0 -3 44 -8 98 -11 53 -4 109 -9 124
-13 24 -6 30 -1 65 52 20 33 60 104 88 159 153 300 127 477 -70 474 -33 0 -65
-3 -72 -5z"/>
<path d="M2390 1374 c0 -3 15 -23 33 -45 19 -21 39 -57 46 -79 l12 -40 149 0
c145 0 150 1 150 20 0 28 -23 70 -52 97 -45 42 -89 53 -218 53 -66 0 -120 -3
-120 -6z"/>
</g>
</svg>
