<?xml version="1.0" standalone="no"?>
<!DOCTYPE svg PUBLIC "-//W3C//DTD SVG 20010904//EN"
 "http://www.w3.org/TR/2001/REC-SVG-20010904/DTD/svg10.dtd">
<svg version="1.0" xmlns="http://www.w3.org/2000/svg"
 width="137.000000pt" height="137.000000pt" viewBox="0 0 137.000000 137.000000"
 preserveAspectRatio="xMidYMid meet">

<g transform="translate(0.000000,137.000000) scale(0.100000,-0.100000)"
fill="#000000" stroke="none">
<path d="M90 1125 l0 -155 40 0 40 0 0 115 0 115 115 0 115 0 0 40 0 40 -155
0 -155 0 0 -155z"/>
<path d="M940 1240 l0 -40 115 0 115 0 0 -115 0 -115 40 0 40 0 0 155 0 155
-155 0 -155 0 0 -40z"/>
<path d="M482 1014 l-182 -106 2 -210 3 -210 179 -104 c98 -57 182 -104 186
-104 4 0 88 47 186 104 l179 104 3 210 2 210 -183 106 c-101 58 -186 106 -188
106 -2 0 -86 -48 -187 -106z m310 -56 c59 -35 108 -66 108 -69 0 -4 -52 -36
-115 -73 l-115 -67 -115 67 c-63 37 -115 69 -115 73 0 9 213 131 229 131 8 0
63 -28 123 -62z m-162 -419 c0 -76 -2 -139 -5 -139 -3 0 -57 30 -120 66 l-115
66 0 143 0 144 120 -71 120 -70 0 -139z m320 137 l0 -144 -115 -66 c-63 -36
-117 -66 -120 -66 -3 0 -5 63 -5 139 l0 139 118 70 c64 39 118 71 120 71 1 1
2 -64 2 -143z"/>
<path d="M90 275 l0 -155 155 0 155 0 0 40 0 40 -115 0 -115 0 0 115 0 115
-40 0 -40 0 0 -155z"/>
<path d="M1170 315 l0 -115 -115 0 -115 0 0 -40 0 -40 155 0 155 0 0 155 0
155 -40 0 -40 0 0 -115z"/>
</g>
</svg>
